<mxfile host="app.diagrams.net" agent="Mozilla/5.0 (Windows NT 10.0; Win64; x64) AppleWebKit/537.36 (KHTML, like Gecko) Chrome/131.0.0.0 Safari/537.36" version="24.9.1">
  <diagram name="Seite-1" id="PIdwhDuCiP5LDbIeZKLE">
    <mxGraphModel dx="1886" dy="656" grid="1" gridSize="10" guides="1" tooltips="1" connect="1" arrows="1" fold="1" page="1" pageScale="1" pageWidth="827" pageHeight="1169" math="0" shadow="0">
      <root>
        <mxCell id="0" />
        <mxCell id="1" parent="0" />
        <mxCell id="MklEleXEeYvls_ki88SR-47" value="Document Title" style="rounded=0;whiteSpace=wrap;html=1;strokeWidth=2;" parent="1" vertex="1">
          <mxGeometry x="200" y="320" width="80" height="40" as="geometry" />
        </mxCell>
        <mxCell id="MklEleXEeYvls_ki88SR-49" value="Level:&amp;nbsp;&lt;span style=&quot;background-color: initial;&quot;&gt;0&lt;/span&gt;" style="rounded=0;whiteSpace=wrap;html=1;fontSize=13;strokeWidth=2;" parent="1" vertex="1">
          <mxGeometry x="200" y="360" width="80" height="40" as="geometry" />
        </mxCell>
        <mxCell id="MklEleXEeYvls_ki88SR-50" value="1. Heading" style="rounded=0;whiteSpace=wrap;html=1;strokeWidth=2;" parent="1" vertex="1">
          <mxGeometry x="200" y="440" width="80" height="40" as="geometry" />
        </mxCell>
        <mxCell id="MklEleXEeYvls_ki88SR-52" value="Level: 1" style="rounded=0;whiteSpace=wrap;html=1;fontSize=13;strokeWidth=2;" parent="1" vertex="1">
          <mxGeometry x="200" y="480" width="80" height="40" as="geometry" />
        </mxCell>
        <mxCell id="MklEleXEeYvls_ki88SR-53" value="2. Heading" style="rounded=0;whiteSpace=wrap;html=1;strokeWidth=2;" parent="1" vertex="1">
          <mxGeometry x="490" y="440" width="80" height="40" as="geometry" />
        </mxCell>
        <mxCell id="MklEleXEeYvls_ki88SR-55" value="Level: 1" style="rounded=0;whiteSpace=wrap;html=1;fontSize=13;strokeWidth=2;" parent="1" vertex="1">
          <mxGeometry x="490" y="480" width="80" height="40" as="geometry" />
        </mxCell>
        <mxCell id="MklEleXEeYvls_ki88SR-56" value="1.1. Sub-Heading" style="rounded=0;whiteSpace=wrap;html=1;strokeWidth=2;" parent="1" vertex="1">
          <mxGeometry x="200" y="560" width="80" height="40" as="geometry" />
        </mxCell>
        <mxCell id="MklEleXEeYvls_ki88SR-58" value="Level: 2" style="rounded=0;whiteSpace=wrap;html=1;fontSize=13;strokeWidth=2;" parent="1" vertex="1">
          <mxGeometry x="200" y="600" width="80" height="40" as="geometry" />
        </mxCell>
        <mxCell id="MklEleXEeYvls_ki88SR-59" value="1.2. Sub-Heading" style="rounded=0;whiteSpace=wrap;html=1;strokeWidth=2;" parent="1" vertex="1">
          <mxGeometry x="380" y="560" width="80" height="40" as="geometry" />
        </mxCell>
        <mxCell id="MklEleXEeYvls_ki88SR-87" value="" style="edgeStyle=orthogonalEdgeStyle;rounded=0;orthogonalLoop=1;jettySize=auto;html=1;entryX=0.5;entryY=0;entryDx=0;entryDy=0;strokeWidth=2;" parent="1" source="MklEleXEeYvls_ki88SR-61" target="MklEleXEeYvls_ki88SR-75" edge="1">
          <mxGeometry relative="1" as="geometry">
            <mxPoint x="360" y="680" as="sourcePoint" />
          </mxGeometry>
        </mxCell>
        <mxCell id="MklEleXEeYvls_ki88SR-61" value="Level: 2" style="rounded=0;whiteSpace=wrap;html=1;fontSize=13;strokeWidth=2;" parent="1" vertex="1">
          <mxGeometry x="380" y="600" width="80" height="40" as="geometry" />
        </mxCell>
        <mxCell id="MklEleXEeYvls_ki88SR-62" value="3. Heading" style="rounded=0;whiteSpace=wrap;html=1;strokeWidth=2;" parent="1" vertex="1">
          <mxGeometry x="590" y="440" width="80" height="40" as="geometry" />
        </mxCell>
        <mxCell id="MklEleXEeYvls_ki88SR-69" value="Paragraph 4" style="rounded=0;whiteSpace=wrap;html=1;strokeWidth=2;" parent="1" vertex="1">
          <mxGeometry x="140" y="720" width="80" height="40" as="geometry" />
        </mxCell>
        <mxCell id="MklEleXEeYvls_ki88SR-71" value="Level: 100" style="rounded=0;whiteSpace=wrap;html=1;fontSize=13;strokeWidth=2;" parent="1" vertex="1">
          <mxGeometry x="140" y="760" width="80" height="40" as="geometry" />
        </mxCell>
        <mxCell id="MklEleXEeYvls_ki88SR-72" value="Paragraph 5" style="rounded=0;whiteSpace=wrap;html=1;strokeWidth=2;" parent="1" vertex="1">
          <mxGeometry x="260" y="720" width="80" height="40" as="geometry" />
        </mxCell>
        <mxCell id="MklEleXEeYvls_ki88SR-75" value="Paragraph 6" style="rounded=0;whiteSpace=wrap;html=1;strokeWidth=2;" parent="1" vertex="1">
          <mxGeometry x="380" y="720" width="80" height="40" as="geometry" />
        </mxCell>
        <mxCell id="MklEleXEeYvls_ki88SR-79" value="" style="endArrow=classic;html=1;rounded=0;exitX=0;exitY=0.5;exitDx=0;exitDy=0;entryX=0.5;entryY=0;entryDx=0;entryDy=0;strokeWidth=2;" parent="1" source="MklEleXEeYvls_ki88SR-49" target="FRS9II_QhU8UgTiwkfGV-9" edge="1">
          <mxGeometry width="50" height="50" relative="1" as="geometry">
            <mxPoint x="250" y="330" as="sourcePoint" />
            <mxPoint x="90" y="390" as="targetPoint" />
            <Array as="points">
              <mxPoint x="-110" y="380" />
            </Array>
          </mxGeometry>
        </mxCell>
        <mxCell id="MklEleXEeYvls_ki88SR-81" value="" style="endArrow=classic;html=1;rounded=0;exitX=1;exitY=0.5;exitDx=0;exitDy=0;entryX=0.5;entryY=0;entryDx=0;entryDy=0;strokeWidth=2;" parent="1" target="MklEleXEeYvls_ki88SR-53" edge="1" source="MklEleXEeYvls_ki88SR-49">
          <mxGeometry width="50" height="50" relative="1" as="geometry">
            <mxPoint x="360" y="380" as="sourcePoint" />
            <mxPoint x="200" y="440" as="targetPoint" />
            <Array as="points">
              <mxPoint x="530" y="380" />
            </Array>
          </mxGeometry>
        </mxCell>
        <mxCell id="MklEleXEeYvls_ki88SR-82" value="" style="endArrow=classic;html=1;rounded=0;exitX=0;exitY=0.5;exitDx=0;exitDy=0;entryX=0.5;entryY=0;entryDx=0;entryDy=0;strokeWidth=2;" parent="1" target="FRS9II_QhU8UgTiwkfGV-25" edge="1">
          <mxGeometry width="50" height="50" relative="1" as="geometry">
            <mxPoint x="200" y="500" as="sourcePoint" />
            <mxPoint x="40" y="560" as="targetPoint" />
            <Array as="points">
              <mxPoint x="70" y="500" />
            </Array>
          </mxGeometry>
        </mxCell>
        <mxCell id="MklEleXEeYvls_ki88SR-84" value="" style="endArrow=classic;html=1;rounded=0;exitX=0;exitY=0.5;exitDx=0;exitDy=0;entryX=0.5;entryY=0;entryDx=0;entryDy=0;strokeWidth=2;" parent="1" target="MklEleXEeYvls_ki88SR-69" edge="1">
          <mxGeometry width="50" height="50" relative="1" as="geometry">
            <mxPoint x="200" y="620" as="sourcePoint" />
            <mxPoint x="40" y="680" as="targetPoint" />
            <Array as="points">
              <mxPoint x="180" y="620" />
            </Array>
          </mxGeometry>
        </mxCell>
        <mxCell id="MklEleXEeYvls_ki88SR-85" value="" style="endArrow=classic;html=1;rounded=0;exitX=0;exitY=0.5;exitDx=0;exitDy=0;entryX=0.5;entryY=0;entryDx=0;entryDy=0;strokeWidth=2;" parent="1" target="MklEleXEeYvls_ki88SR-72" edge="1">
          <mxGeometry width="50" height="50" relative="1" as="geometry">
            <mxPoint x="280" y="620" as="sourcePoint" />
            <mxPoint x="440" y="680" as="targetPoint" />
            <Array as="points">
              <mxPoint x="300" y="620" />
            </Array>
          </mxGeometry>
        </mxCell>
        <mxCell id="MklEleXEeYvls_ki88SR-86" value="" style="endArrow=classic;html=1;rounded=0;exitX=1;exitY=0.5;exitDx=0;exitDy=0;entryX=0.5;entryY=0;entryDx=0;entryDy=0;strokeWidth=2;" parent="1" source="MklEleXEeYvls_ki88SR-52" target="MklEleXEeYvls_ki88SR-59" edge="1">
          <mxGeometry width="50" height="50" relative="1" as="geometry">
            <mxPoint x="310" y="500" as="sourcePoint" />
            <mxPoint x="440" y="520" as="targetPoint" />
            <Array as="points">
              <mxPoint x="420" y="500" />
            </Array>
          </mxGeometry>
        </mxCell>
        <mxCell id="MklEleXEeYvls_ki88SR-90" value="Level: 100" style="rounded=0;whiteSpace=wrap;html=1;fontSize=13;strokeWidth=2;" parent="1" vertex="1">
          <mxGeometry x="260" y="760" width="80" height="40" as="geometry" />
        </mxCell>
        <mxCell id="MklEleXEeYvls_ki88SR-91" value="Level: 100" style="rounded=0;whiteSpace=wrap;html=1;fontSize=13;strokeWidth=2;" parent="1" vertex="1">
          <mxGeometry x="380" y="760" width="80" height="40" as="geometry" />
        </mxCell>
        <mxCell id="MklEleXEeYvls_ki88SR-92" value="Level: 1" style="rounded=0;whiteSpace=wrap;html=1;fontSize=13;strokeWidth=2;" parent="1" vertex="1">
          <mxGeometry x="590" y="480" width="80" height="40" as="geometry" />
        </mxCell>
        <mxCell id="FRS9II_QhU8UgTiwkfGV-9" value="Preamble" style="rounded=0;whiteSpace=wrap;html=1;strokeWidth=2;" vertex="1" parent="1">
          <mxGeometry x="-150" y="440" width="80" height="40" as="geometry" />
        </mxCell>
        <mxCell id="FRS9II_QhU8UgTiwkfGV-10" value="Level: 1" style="rounded=0;whiteSpace=wrap;html=1;fontSize=13;strokeWidth=2;" vertex="1" parent="1">
          <mxGeometry x="-150" y="480" width="80" height="40" as="geometry" />
        </mxCell>
        <mxCell id="FRS9II_QhU8UgTiwkfGV-11" value="Paragraph 1" style="rounded=0;whiteSpace=wrap;html=1;strokeWidth=2;" vertex="1" parent="1">
          <mxGeometry x="-210" y="720" width="80" height="40" as="geometry" />
        </mxCell>
        <mxCell id="FRS9II_QhU8UgTiwkfGV-12" value="Paragraph 2" style="rounded=0;whiteSpace=wrap;html=1;strokeWidth=2;" vertex="1" parent="1">
          <mxGeometry x="-90" y="720" width="80" height="40" as="geometry" />
        </mxCell>
        <mxCell id="FRS9II_QhU8UgTiwkfGV-13" value="" style="endArrow=classic;html=1;rounded=0;entryX=0.5;entryY=0;entryDx=0;entryDy=0;fontSize=11;strokeWidth=2;exitX=1;exitY=0.5;exitDx=0;exitDy=0;" edge="1" parent="1" target="FRS9II_QhU8UgTiwkfGV-12" source="FRS9II_QhU8UgTiwkfGV-10">
          <mxGeometry width="50" height="50" relative="1" as="geometry">
            <mxPoint x="-90" y="500" as="sourcePoint" />
            <mxPoint x="-50" y="600" as="targetPoint" />
            <Array as="points">
              <mxPoint x="-50" y="500" />
            </Array>
          </mxGeometry>
        </mxCell>
        <mxCell id="FRS9II_QhU8UgTiwkfGV-14" value="" style="endArrow=classic;html=1;rounded=0;strokeWidth=2;" edge="1" parent="1" target="FRS9II_QhU8UgTiwkfGV-11">
          <mxGeometry width="50" height="50" relative="1" as="geometry">
            <mxPoint x="-150" y="500" as="sourcePoint" />
            <mxPoint x="-170" y="600" as="targetPoint" />
            <Array as="points">
              <mxPoint x="-170" y="500" />
            </Array>
          </mxGeometry>
        </mxCell>
        <mxCell id="FRS9II_QhU8UgTiwkfGV-15" value="Level: 100" style="rounded=0;whiteSpace=wrap;html=1;fontSize=13;strokeWidth=2;" vertex="1" parent="1">
          <mxGeometry x="-210" y="760" width="80" height="40" as="geometry" />
        </mxCell>
        <mxCell id="FRS9II_QhU8UgTiwkfGV-16" value="Level: 100" style="rounded=0;whiteSpace=wrap;html=1;fontSize=13;strokeWidth=2;" vertex="1" parent="1">
          <mxGeometry x="-90" y="760" width="80" height="40" as="geometry" />
        </mxCell>
        <mxCell id="FRS9II_QhU8UgTiwkfGV-18" value="" style="endArrow=classic;html=1;rounded=0;exitX=0.5;exitY=1;exitDx=0;exitDy=0;entryX=0.5;entryY=0;entryDx=0;entryDy=0;strokeWidth=2;" edge="1" parent="1" source="MklEleXEeYvls_ki88SR-49" target="MklEleXEeYvls_ki88SR-50">
          <mxGeometry width="50" height="50" relative="1" as="geometry">
            <mxPoint x="450" y="390" as="sourcePoint" />
            <mxPoint x="570" y="450" as="targetPoint" />
            <Array as="points" />
          </mxGeometry>
        </mxCell>
        <mxCell id="FRS9II_QhU8UgTiwkfGV-19" value="" style="endArrow=classic;html=1;rounded=0;exitX=0;exitY=0.5;exitDx=0;exitDy=0;entryX=0.5;entryY=0;entryDx=0;entryDy=0;strokeWidth=2;" edge="1" parent="1">
          <mxGeometry width="50" height="50" relative="1" as="geometry">
            <mxPoint x="510" y="380" as="sourcePoint" />
            <mxPoint x="630" y="440" as="targetPoint" />
            <Array as="points">
              <mxPoint x="630" y="380" />
            </Array>
          </mxGeometry>
        </mxCell>
        <mxCell id="FRS9II_QhU8UgTiwkfGV-20" value="&lt;font&gt;&lt;b&gt;...&lt;/b&gt;&lt;/font&gt;" style="text;html=1;align=center;verticalAlign=middle;resizable=0;points=[];autosize=1;strokeColor=none;fillColor=none;fontSize=66;" vertex="1" parent="1">
          <mxGeometry x="691" y="415" width="80" height="90" as="geometry" />
        </mxCell>
        <mxCell id="FRS9II_QhU8UgTiwkfGV-21" value="" style="endArrow=classic;html=1;rounded=0;exitX=0.5;exitY=1;exitDx=0;exitDy=0;strokeWidth=2;" edge="1" parent="1" source="MklEleXEeYvls_ki88SR-55">
          <mxGeometry width="50" height="50" relative="1" as="geometry">
            <mxPoint x="480" y="660" as="sourcePoint" />
            <mxPoint x="530" y="600" as="targetPoint" />
            <Array as="points" />
          </mxGeometry>
        </mxCell>
        <mxCell id="FRS9II_QhU8UgTiwkfGV-22" value="" style="endArrow=classic;html=1;rounded=0;exitX=0.5;exitY=1;exitDx=0;exitDy=0;strokeWidth=2;" edge="1" parent="1">
          <mxGeometry width="50" height="50" relative="1" as="geometry">
            <mxPoint x="629.38" y="520" as="sourcePoint" />
            <mxPoint x="629.38" y="600" as="targetPoint" />
            <Array as="points" />
          </mxGeometry>
        </mxCell>
        <mxCell id="FRS9II_QhU8UgTiwkfGV-23" value="&lt;font&gt;&lt;b&gt;...&lt;/b&gt;&lt;/font&gt;" style="text;html=1;align=center;verticalAlign=middle;resizable=0;points=[];autosize=1;strokeColor=none;fillColor=none;fontSize=66;" vertex="1" parent="1">
          <mxGeometry x="540" y="585" width="80" height="90" as="geometry" />
        </mxCell>
        <mxCell id="FRS9II_QhU8UgTiwkfGV-24" value="" style="endArrow=classic;html=1;rounded=0;exitX=0.5;exitY=1;exitDx=0;exitDy=0;strokeWidth=2;entryX=0.5;entryY=0;entryDx=0;entryDy=0;" edge="1" parent="1" target="MklEleXEeYvls_ki88SR-56">
          <mxGeometry width="50" height="50" relative="1" as="geometry">
            <mxPoint x="239.37" y="520" as="sourcePoint" />
            <mxPoint x="239" y="550" as="targetPoint" />
            <Array as="points" />
          </mxGeometry>
        </mxCell>
        <mxCell id="FRS9II_QhU8UgTiwkfGV-25" value="Paragraph 3" style="rounded=0;whiteSpace=wrap;html=1;strokeWidth=2;" vertex="1" parent="1">
          <mxGeometry x="30" y="720" width="80" height="40" as="geometry" />
        </mxCell>
        <mxCell id="FRS9II_QhU8UgTiwkfGV-26" value="Level: 100" style="rounded=0;whiteSpace=wrap;html=1;fontSize=13;strokeWidth=2;" vertex="1" parent="1">
          <mxGeometry x="30" y="760" width="80" height="40" as="geometry" />
        </mxCell>
      </root>
    </mxGraphModel>
  </diagram>
</mxfile>
